#Comment line ignore any data following # character 
#Hierarchical Translation and Rotation (.htr) file 
[Header]	
#Header keywords are followed by a single value 
FileType HTR		#Single word string
DataType HTRS		#Translation followed by rotation and scale data
FileVersion 1		#integer
NumSegments 84		#integer
NumFrames 2		#integer
DataFrameRate 30		#integer, data frame rate in this file
EulerRotationOrder ZYX
CalibrationUnits mm
RotationUnits Degrees
GlobalAxisofGravity Y
BoneLengthAxis Y
ScaleFactor 1.00
[SegmentNames&Hierarchy]
#CHILD	PARENT
MASTER GLOBAL
root MASTER
chest root
L_mid_tent01 root
R_mid_tent01 root
spine01 root
Bip01_Neck chest
L_humerus chest
R_humerus chest
weapon_bone chest
Bip01_Head Bip01_Neck
eye_left_bone Bip01_Head
eye_right_bone Bip01_Head
L_forearm L_humerus
L_front_hand L_forearm
L_weapon_bone L_forearm
L_front_hand01_01 L_front_hand
L_front_hand02_01 L_front_hand
L_front_hand03_01 L_front_hand
L_front_hand01_02 L_front_hand01_01
L_front_hand02_02 L_front_hand02_01
L_front_hand03_02 L_front_hand03_01
R_forearm R_humerus
R_front_hand R_forearm
R_weapon_bone R_forearm
R_front_hand01_01 R_front_hand
R_front_hand02_01 R_front_hand
R_front_hand03_01 R_front_hand
R_front_hand01_02 R_front_hand01_01
R_front_hand02_02 R_front_hand02_01
R_front_hand03_02 R_front_hand03_01
null_rope01_connect L_mid_tent01
Rope1_Seg01 null_rope01_connect
Rope1_Seg02 Rope1_Seg01
Rope1_Seg03 Rope1_Seg02
Rope1_Seg04 Rope1_Seg03
Rope1_Seg05 Rope1_Seg04
Rope1_Seg06 Rope1_Seg05
Rope1_Seg07 Rope1_Seg06
Rope1_Seg09 Rope1_Seg07
L_mid_hand01 Rope1_Seg09
L_mid_hand02 Rope1_Seg09
L_mid_hand03 Rope1_Seg09
null_rope02_connect R_mid_tent01
Rope2_Seg01 null_rope02_connect
Rope2_Seg02 Rope2_Seg01
Rope2_Seg03 Rope2_Seg02
Rope2_Seg04 Rope2_Seg03
Rope2_Seg05 Rope2_Seg04
Rope2_Seg06 Rope2_Seg05
Rope2_Seg07 Rope2_Seg06
Rope2_Seg09 Rope2_Seg07
R_mid_hand01 Rope2_Seg09
R_mid_hand02 Rope2_Seg09
R_mid_hand03 Rope2_Seg09
spine02 spine01
spine03 spine02
pelvis spine03
null_rope03_connect pelvis
null_rope04_connect pelvis
Rope3_Seg01 null_rope03_connect
Rope3_Seg02 Rope3_Seg01
Rope3_Seg03 Rope3_Seg02
Rope3_Seg04 Rope3_Seg03
Rope3_Seg05 Rope3_Seg04
Rope3_Seg06 Rope3_Seg05
Rope3_Seg07 Rope3_Seg06
Rope3_Seg08 Rope3_Seg07
Rope3_Seg09 Rope3_Seg08
R_rear_hand01 Rope3_Seg09
R_rear_hand02 Rope3_Seg09
R_rear_hand03 Rope3_Seg09
Rope4_Seg01 null_rope04_connect
Rope4_Seg02 Rope4_Seg01
Rope4_Seg03 Rope4_Seg02
Rope4_Seg04 Rope4_Seg03
Rope4_Seg05 Rope4_Seg04
Rope4_Seg06 Rope4_Seg05
Rope4_Seg07 Rope4_Seg06
Rope4_Seg08 Rope4_Seg07
Rope4_Seg09 Rope4_Seg08
L_rear_hand01 Rope4_Seg09
L_rear_hand02 Rope4_Seg09
L_rear_hand03 Rope4_Seg09
[BasePosition]
#SegmentName Tx, Ty, Tz, Rx, Ry, Rz, BoneLength
MASTER 0.000000 0.000000 0.000000 -90.000000 0.000000 0.000000 10.000000 
root 0.000000 0.000000 0.000000 0.000000 0.000000 0.000000 10.000000 
chest 0.000000 0.000000 0.000000 0.000000 0.000000 0.000000 10.000000 
L_mid_tent01 0.000000 0.000000 0.000000 0.000000 0.000000 0.000000 10.000000 
R_mid_tent01 0.000000 0.000000 0.000000 0.000000 0.000000 0.000000 10.000000 
spine01 0.000000 0.000000 0.000000 0.000000 0.000000 0.000000 10.000000 
Bip01_Neck 0.000000 0.000000 0.000000 0.000000 0.000000 0.000000 10.000000 
L_humerus 0.000000 0.000000 0.000000 0.000000 0.000000 0.000000 10.000000 
R_humerus 0.000000 0.000000 0.000000 0.000000 0.000000 0.000000 10.000000 
weapon_bone 0.000000 0.000000 0.000000 0.000000 0.000000 0.000000 10.000000 
Bip01_Head 0.000000 0.000000 0.000000 0.000000 0.000000 0.000000 10.000000 
eye_left_bone 0.000000 0.000000 0.000000 0.000000 0.000000 0.000000 10.000000 
eye_right_bone 0.000000 0.000000 0.000000 0.000000 0.000000 0.000000 10.000000 
L_forearm 0.000000 0.000000 0.000000 0.000000 0.000000 0.000000 10.000000 
L_front_hand 0.000000 0.000000 0.000000 0.000000 0.000000 0.000000 10.000000 
L_weapon_bone 0.000000 0.000000 0.000000 0.000000 0.000000 0.000000 10.000000 
L_front_hand01_01 0.000000 0.000000 0.000000 0.000000 0.000000 0.000000 10.000000 
L_front_hand02_01 0.000000 0.000000 0.000000 0.000000 0.000000 0.000000 10.000000 
L_front_hand03_01 0.000000 0.000000 0.000000 0.000000 0.000000 0.000000 10.000000 
L_front_hand01_02 0.000000 0.000000 0.000000 0.000000 0.000000 0.000000 10.000000 
L_front_hand02_02 0.000000 0.000000 0.000000 0.000000 0.000000 0.000000 10.000000 
L_front_hand03_02 0.000000 0.000000 0.000000 0.000000 0.000000 0.000000 10.000000 
R_forearm 0.000000 0.000000 0.000000 0.000000 0.000000 0.000000 10.000000 
R_front_hand 0.000000 0.000000 0.000000 0.000000 0.000000 0.000000 10.000000 
R_weapon_bone 0.000000 0.000000 0.000000 0.000000 0.000000 0.000000 10.000000 
R_front_hand01_01 0.000000 0.000000 0.000000 0.000000 0.000000 0.000000 10.000000 
R_front_hand02_01 0.000000 0.000000 0.000000 0.000000 0.000000 0.000000 10.000000 
R_front_hand03_01 0.000000 0.000000 0.000000 0.000000 0.000000 0.000000 10.000000 
R_front_hand01_02 0.000000 0.000000 0.000000 0.000000 0.000000 0.000000 10.000000 
R_front_hand02_02 0.000000 0.000000 0.000000 0.000000 0.000000 0.000000 10.000000 
R_front_hand03_02 0.000000 0.000000 0.000000 0.000000 0.000000 0.000000 10.000000 
null_rope01_connect 0.000000 0.000000 0.000000 0.000000 0.000000 0.000000 10.000000 
Rope1_Seg01 0.000000 0.000000 0.000000 0.000000 0.000000 0.000000 10.000000 
Rope1_Seg02 0.000000 0.000000 0.000000 0.000000 0.000000 0.000000 10.000000 
Rope1_Seg03 0.000000 0.000000 0.000000 0.000000 0.000000 0.000000 10.000000 
Rope1_Seg04 0.000000 0.000000 0.000000 0.000000 0.000000 0.000000 10.000000 
Rope1_Seg05 0.000000 0.000000 0.000000 0.000000 0.000000 0.000000 10.000000 
Rope1_Seg06 0.000000 0.000000 0.000000 0.000000 0.000000 0.000000 10.000000 
Rope1_Seg07 0.000000 0.000000 0.000000 0.000000 0.000000 0.000000 10.000000 
Rope1_Seg09 0.000000 0.000000 0.000000 0.000000 0.000000 0.000000 10.000000 
L_mid_hand01 0.000000 0.000000 0.000000 0.000000 0.000000 0.000000 10.000000 
L_mid_hand02 0.000000 0.000000 0.000000 0.000000 0.000000 0.000000 10.000000 
L_mid_hand03 0.000000 0.000000 0.000000 0.000000 0.000000 0.000000 10.000000 
null_rope02_connect 0.000000 0.000000 0.000000 0.000000 0.000000 0.000000 10.000000 
Rope2_Seg01 0.000000 0.000000 0.000000 0.000000 0.000000 0.000000 10.000000 
Rope2_Seg02 0.000000 0.000000 0.000000 0.000000 0.000000 0.000000 10.000000 
Rope2_Seg03 0.000000 0.000000 0.000000 0.000000 0.000000 0.000000 10.000000 
Rope2_Seg04 0.000000 0.000000 0.000000 0.000000 0.000000 0.000000 10.000000 
Rope2_Seg05 0.000000 0.000000 0.000000 0.000000 0.000000 0.000000 10.000000 
Rope2_Seg06 0.000000 0.000000 0.000000 0.000000 0.000000 0.000000 10.000000 
Rope2_Seg07 0.000000 0.000000 0.000000 0.000000 0.000000 0.000000 10.000000 
Rope2_Seg09 0.000000 0.000000 0.000000 0.000000 0.000000 0.000000 10.000000 
R_mid_hand01 0.000000 0.000000 0.000000 0.000000 0.000000 0.000000 10.000000 
R_mid_hand02 0.000000 0.000000 0.000000 0.000000 0.000000 0.000000 10.000000 
R_mid_hand03 0.000000 0.000000 0.000000 0.000000 0.000000 0.000000 10.000000 
spine02 0.000000 0.000000 0.000000 0.000000 0.000000 0.000000 10.000000 
spine03 0.000000 0.000000 0.000000 0.000000 0.000000 0.000000 10.000000 
pelvis 0.000000 0.000000 0.000000 0.000000 0.000000 0.000000 10.000000 
null_rope03_connect 0.000000 0.000000 0.000000 0.000000 0.000000 0.000000 10.000000 
null_rope04_connect 0.000000 0.000000 0.000000 0.000000 0.000000 0.000000 10.000000 
Rope3_Seg01 0.000000 0.000000 0.000000 0.000000 0.000000 0.000000 10.000000 
Rope3_Seg02 0.000000 0.000000 0.000000 0.000000 0.000000 0.000000 10.000000 
Rope3_Seg03 0.000000 0.000000 0.000000 0.000000 0.000000 0.000000 10.000000 
Rope3_Seg04 0.000000 0.000000 0.000000 0.000000 0.000000 0.000000 10.000000 
Rope3_Seg05 0.000000 0.000000 0.000000 0.000000 0.000000 0.000000 10.000000 
Rope3_Seg06 0.000000 0.000000 0.000000 0.000000 0.000000 0.000000 10.000000 
Rope3_Seg07 0.000000 0.000000 0.000000 0.000000 0.000000 0.000000 10.000000 
Rope3_Seg08 0.000000 0.000000 0.000000 0.000000 0.000000 0.000000 10.000000 
Rope3_Seg09 0.000000 0.000000 0.000000 0.000000 0.000000 0.000000 10.000000 
R_rear_hand01 0.000000 0.000000 0.000000 0.000000 0.000000 0.000000 10.000000 
R_rear_hand02 0.000000 0.000000 0.000000 0.000000 0.000000 0.000000 10.000000 
R_rear_hand03 0.000000 0.000000 0.000000 0.000000 0.000000 0.000000 10.000000 
Rope4_Seg01 0.000000 0.000000 0.000000 0.000000 0.000000 0.000000 10.000000 
Rope4_Seg02 0.000000 0.000000 0.000000 0.000000 0.000000 0.000000 10.000000 
Rope4_Seg03 0.000000 0.000000 0.000000 0.000000 0.000000 0.000000 10.000000 
Rope4_Seg04 0.000000 0.000000 0.000000 0.000000 0.000000 0.000000 10.000000 
Rope4_Seg05 0.000000 0.000000 0.000000 0.000000 0.000000 0.000000 10.000000 
Rope4_Seg06 0.000000 0.000000 0.000000 0.000000 0.000000 0.000000 10.000000 
Rope4_Seg07 0.000000 0.000000 0.000000 0.000000 0.000000 0.000000 10.000000 
Rope4_Seg08 0.000000 0.000000 0.000000 0.000000 0.000000 0.000000 10.000000 
Rope4_Seg09 0.000000 0.000000 0.000000 0.000000 0.000000 0.000000 10.000000 
L_rear_hand01 0.000000 0.000000 0.000000 0.000000 0.000000 0.000000 10.000000 
L_rear_hand02 0.000000 0.000000 0.000000 0.000000 0.000000 0.000000 10.000000 
L_rear_hand03 0.000000 0.000000 0.000000 0.000000 0.000000 0.000000 10.000000 
#Beginning of Data. Separated by tabs
#Fr	Tx	Ty	Tz	Rx	Ry	Rz	SF
[MASTER]
5 -346.146637 0.000052 0.000000 0.002347 0.000000 89.997704 346.146637
6 -490.350922 0.000074 0.000000 0.002347 0.000000 89.997704 490.350922
[root]
5 -62.822117 16.502304 1239.468872 -32.113861 -27.676029 179.848785 1241.169678
6 -62.822117 16.502304 1196.710083 -17.818377 -27.676100 179.850555 1198.471558
[chest]
5 -84.512650 -34.090519 0.000000 51.370560 0.340331 177.428558 91.129311
6 -84.512650 -34.090519 0.000000 72.713715 1.142803 175.783279 91.129311
[L_mid_tent01]
5 27.457008 22.087250 -250.929688 -29.233292 5.981930 21.382013 253.391876
6 27.471502 22.078941 -251.022842 -29.731777 4.232399 19.474463 253.484955
[R_mid_tent01]
5 23.228794 24.509907 226.238495 -153.571594 -44.383675 26.425430 228.744751
6 23.228794 24.509907 226.238495 -153.054871 -44.541176 25.448687 228.744751
[spine01]
5 -0.361383 -0.195265 0.000000 2.980417 0.746728 -2.200461 0.410763
6 -0.361383 -0.195265 0.000000 5.651736 0.863922 -2.917227 0.410763
[Bip01_Neck]
5 165.484543 71.581718 0.000119 175.896118 1.177290 24.871185 180.302734
6 165.484543 71.581718 0.000119 175.896118 1.177290 24.871183 180.302734
[L_humerus]
5 -13.983130 -135.272980 -120.471481 170.940796 81.564224 -99.189163 181.680161
6 -13.983130 -135.272980 -120.471481 170.940811 81.564247 -99.189163 181.680161
[R_humerus]
5 -13.983309 -135.273102 125.287651 -159.666046 -68.957878 -101.166100 184.909012
6 -13.983309 -135.273102 125.287651 -159.666046 -68.957870 -101.166077 184.909012
[weapon_bone]
5 235.964890 -300.705902 0.000000 0.000000 -89.951546 -128.212341 382.234833
6 235.964890 -300.705902 0.000000 0.000000 -89.951546 -128.212341 382.234833
[Bip01_Head]
5 261.355835 108.959366 -2.864171 2.248029 5.843377 -62.458344 283.173492
6 261.355835 108.959373 -2.864166 2.248029 5.843377 -62.458344 283.173492
[eye_left_bone]
5 -24.626970 125.451866 -64.772606 0.000000 -90.000000 -99.840431 143.318359
6 -24.626970 125.451866 -64.772606 0.000000 -90.000000 -99.840431 143.318359
[eye_right_bone]
5 -24.626970 125.451866 64.327362 0.000000 -89.960434 80.159386 143.117676
6 -24.626970 125.451866 64.327362 0.000000 -89.960434 80.159386 143.117676
[L_forearm]
5 322.776093 0.000000 -0.000119 0.000471 0.002300 -66.859398 322.776093
6 322.776093 0.000000 -0.000119 0.000471 0.002300 -66.859383 322.776093
[L_front_hand]
5 241.149185 -0.042021 -3.300071 -178.667953 -1.835447 -27.422350 241.171753
6 241.149185 -0.042021 -3.300071 -178.667953 -1.835447 -27.422342 241.171753
[L_weapon_bone]
5 156.183838 0.000000 0.000000 0.002111 0.001027 38.114681 156.183838
6 156.183838 0.000000 0.000000 0.002069 0.001109 33.607582 156.183838
[L_front_hand01_01]
5 86.095154 20.947098 -0.655860 -0.365397 -0.478071 75.098351 88.609184
6 86.095154 20.947098 -0.655860 -0.366594 -0.477154 75.385574 88.609184
[L_front_hand02_01]
5 86.935165 -11.437475 24.513514 153.962997 -59.762066 -60.859097 91.046425
6 86.935165 -11.437475 24.513514 154.403519 -59.888931 -61.371990 91.046425
[L_front_hand03_01]
5 86.637497 -14.123976 -20.424902 -153.509613 57.991444 -62.227245 90.126129
6 86.637497 -14.123976 -20.424902 -153.913849 58.118122 -62.702866 90.126129
[L_front_hand01_02]
5 71.020905 -0.000179 0.000030 0.001530 0.001780 -8.661532 71.020905
6 71.020905 -0.000179 0.000030 0.001517 0.001791 -9.480136 71.020905
[L_front_hand02_02]
5 71.020927 -0.000119 0.000060 0.001530 0.001780 -8.661532 71.020927
6 71.020927 -0.000119 0.000060 0.001517 0.001791 -9.480136 71.020927
[L_front_hand03_02]
5 71.020905 -0.000060 0.000060 0.001530 0.001780 -8.661532 71.020905
6 71.020905 -0.000060 0.000060 0.001517 0.001791 -9.480136 71.020905
[R_forearm]
5 322.776428 -0.000060 0.000030 0.199694 -0.075621 -69.903061 322.776428
6 322.776428 -0.000060 0.000030 0.199694 -0.075621 -69.903069 322.776428
[R_front_hand]
5 238.847015 -0.006795 2.210259 -1.531694 0.790216 -51.443062 238.857239
6 238.847015 -0.006795 2.210259 -1.531694 0.790216 -51.443054 238.857239
[R_weapon_bone]
5 155.664093 0.002503 -0.000030 0.002747 0.002450 -137.059357 155.664078
6 155.664093 0.002503 -0.000030 0.002801 0.002388 -134.507675 155.664078
[R_front_hand01_01]
5 87.624611 14.231146 22.918642 -154.633499 -59.950619 61.746044 91.683487
6 87.624611 14.231146 22.918642 -154.633499 -59.950619 61.746044 91.683487
[R_front_hand02_01]
5 89.356956 14.367283 -19.491137 154.602661 58.302849 63.744389 92.579636
6 89.356956 14.367283 -19.491137 154.602661 58.302849 63.744389 92.579636
[R_front_hand03_01]
5 87.286232 -22.307278 -0.143439 0.162155 -0.423168 -75.767921 90.091743
6 87.286232 -22.307278 -0.143439 0.162155 -0.423168 -75.767921 90.091743
[R_front_hand01_02]
5 71.020905 0.000060 0.000119 0.001780 0.001530 8.659903 71.020905
6 71.020905 0.000060 0.000119 0.001791 0.001517 9.478504 71.020905
[R_front_hand02_02]
5 71.020844 -0.000030 -0.000119 0.001780 0.001530 8.659903 71.020836
6 71.020844 -0.000030 -0.000119 0.001791 0.001517 9.478504 71.020836
[R_front_hand03_02]
5 71.020905 0.000000 0.000030 0.001780 0.001530 8.659903 71.020905
6 71.020905 0.000000 0.000030 0.001791 0.001517 9.478504 71.020905
[null_rope01_connect]
5 328.732483 0.000000 -0.000238 38.571972 -61.098141 58.957150 328.732483
6 328.732483 0.000000 -0.000238 36.388844 -47.023453 64.676285 328.732483
[Rope1_Seg01]
5 0.000000 0.000000 0.000000 134.231934 40.422810 -4.185016 0.000000
6 0.000000 0.000000 0.000000 117.622856 18.830162 -19.205677 0.000000
[Rope1_Seg02]
5 139.999863 -0.000179 0.000000 18.184673 -8.321293 -20.340405 139.999863
6 139.999863 -0.000179 0.000000 31.809980 -24.746710 -47.724483 139.999863
[Rope1_Seg03]
5 139.999924 0.000060 -0.000060 44.230019 -28.871315 -36.252335 139.999924
6 139.999924 0.000060 -0.000060 23.738489 -32.714802 -29.544090 139.999924
[Rope1_Seg04]
5 139.999924 -0.000060 -0.000119 17.643337 -32.222466 -14.233127 139.999924
6 139.999924 -0.000060 -0.000119 8.388260 -14.825834 -17.534714 139.999924
[Rope1_Seg05]
5 139.999832 0.000119 -0.000060 3.125436 -12.051305 -4.831846 139.999832
6 139.999832 0.000119 -0.000060 2.697739 -6.118885 -5.896695 139.999832
[Rope1_Seg06]
5 139.999954 0.000119 -0.000060 0.690064 -4.815680 -1.066898 139.999954
6 139.999954 0.000119 -0.000060 1.116981 -3.053273 -2.299239 139.999954
[Rope1_Seg07]
5 139.999985 0.000060 0.000000 0.296607 -2.702497 -0.549516 139.999985
6 139.999985 0.000060 0.000000 0.657291 -1.884960 -1.364506 139.999985
[Rope1_Seg09]
5 121.602913 0.000119 -0.000089 -89.793175 -1.359789 0.847147 121.602913
6 121.602913 0.000119 -0.000089 -89.793175 -1.359789 0.847147 121.602913
[L_mid_hand01]
5 103.859421 1.038730 8.195221 111.431297 -47.263840 -16.612019 104.187431
6 103.859421 1.038730 8.195221 111.431305 -47.263851 -16.612017 104.187431
[L_mid_hand02]
5 105.572853 -4.139662 -10.864139 -150.709808 35.166882 -45.161087 106.211075
6 105.572853 -4.139662 -10.864139 -150.709808 35.166882 -45.161087 106.211075
[L_mid_hand03]
5 104.641464 17.579376 -3.913581 -12.649597 13.975001 50.985863 106.179977
6 104.641464 17.579376 -3.913581 -12.649596 13.974999 50.985855 106.179977
[null_rope02_connect]
5 328.732849 0.000179 -0.000119 -130.387482 -13.384475 -48.841499 328.732849
6 328.732849 0.000179 -0.000119 -127.799110 -26.672092 -55.545868 328.732849
[Rope2_Seg01]
5 -0.000017 0.000082 0.000096 107.810295 -18.941442 -3.311420 0.000128
6 -0.000011 0.000084 0.000092 142.457947 -40.320782 -10.265254 0.000125
[Rope2_Seg02]
5 139.999741 -0.000060 -0.000119 -16.629770 3.432215 -20.310246 139.999756
6 139.999741 -0.000060 -0.000119 -27.175638 -8.224943 -22.381939 139.999756
[Rope2_Seg03]
5 140.000107 0.000030 0.000000 -15.983449 18.272186 -39.286434 140.000107
6 140.000107 0.000030 0.000000 -23.725441 7.652668 -46.411087 140.000107
[Rope2_Seg04]
5 139.999802 0.000000 -0.000060 -0.903250 17.296021 -26.152590 139.999802
6 139.999802 0.000000 -0.000060 -3.187699 13.010990 -23.281305 139.999802
[Rope2_Seg05]
5 139.999985 -0.000060 0.000119 6.929576 5.995944 -16.946936 139.999985
6 139.999985 -0.000060 0.000119 2.726564 2.666788 -15.396059 139.999985
[Rope2_Seg06]
5 139.999893 -0.000030 -0.000119 6.650436 2.068808 -10.128461 139.999893
6 139.999893 -0.000030 -0.000119 4.748520 0.109496 -14.077139 139.999893
[Rope2_Seg07]
5 139.999893 0.000060 -0.000060 4.216944 0.720226 -5.383236 139.999893
6 139.999893 0.000060 -0.000060 3.073674 0.320299 -7.614496 139.999893
[Rope2_Seg09]
5 121.338966 0.000089 -0.000060 33.793236 -1.359788 -0.847141 121.338966
6 121.338966 0.000089 -0.000060 33.793236 -1.359788 -0.847141 121.338966
[R_mid_hand01]
5 104.680779 11.144459 -10.335981 -34.269653 35.095993 42.885235 105.778534
6 104.680779 11.144459 -10.335981 -34.269650 35.095989 42.885235 105.778534
[R_mid_hand02]
5 104.070427 2.443552 8.231699 68.449066 -47.537163 16.779839 104.424065
6 104.070427 2.443552 8.231699 68.449066 -47.537163 16.779839 104.424065
[R_mid_hand03]
5 106.028137 -11.221827 -5.996406 -171.106766 13.128626 -52.726494 106.788818
6 106.028137 -11.221827 -5.996406 -171.106766 13.128626 -52.726494 106.788818
[spine02]
5 129.756927 0.001550 0.000119 -0.245322 -4.052059 -4.355546 129.756927
6 129.756927 0.001550 0.000119 -0.245322 -4.052060 -4.355547 129.756927
[spine03]
5 78.613754 0.087128 -4.898779 0.369658 4.260732 -4.885719 78.766289
6 78.613762 0.087128 -4.898775 0.369659 4.260734 -4.885721 78.766296
[pelvis]
5 169.435242 0.051022 0.000000 -0.010057 -0.196355 -1.820888 169.435257
6 169.435242 0.051022 0.000000 -0.010069 -0.196354 -1.813469 169.435257
[null_rope03_connect]
5 -1.257226 -2.466202 137.391083 26.983500 -28.730051 103.747803 137.418976
6 -1.257226 -2.466202 137.391083 27.163784 -11.764897 104.274673 137.418976
[null_rope04_connect]
5 -1.259640 -2.480268 -137.844437 26.983500 -28.730051 103.747803 137.872513
6 -1.259640 -2.480268 -137.844437 27.163784 -11.764897 104.274673 137.872513
[Rope3_Seg01]
5 0.000000 0.000000 0.000000 169.598999 -57.958839 157.538773 0.000000
6 0.000000 0.000000 0.000000 159.929260 -46.051651 171.641373 0.000000
[Rope3_Seg02]
5 139.999924 -0.000119 0.000060 10.522112 -9.789994 15.871345 139.999924
6 139.999924 -0.000119 0.000060 15.635353 -7.963281 15.214392 139.999924
[Rope3_Seg03]
5 139.999924 -0.000119 0.000119 6.426814 -7.845246 19.098276 139.999924
6 139.999924 -0.000119 0.000119 10.186066 -4.983635 22.527834 139.999924
[Rope3_Seg04]
5 139.999924 0.000119 0.000000 2.203206 -4.220971 14.802238 139.999924
6 139.999924 0.000119 0.000000 3.666737 -0.965672 19.070820 139.999924
[Rope3_Seg05]
5 139.999924 -0.000238 0.000060 -0.118277 -0.070545 22.550978 139.999924
6 139.999924 -0.000238 0.000060 1.090411 4.411968 24.841139 139.999924
[Rope3_Seg06]
5 139.999893 -0.000119 -0.000060 -3.790847 0.866941 21.915031 139.999893
6 139.999893 -0.000119 -0.000060 -2.054990 4.669786 21.198830 139.999893
[Rope3_Seg07]
5 139.999771 0.000060 -0.000119 -3.926377 -0.692065 10.466702 139.999771
6 139.999771 0.000060 -0.000119 -2.665221 1.342873 9.614320 139.999771
[Rope3_Seg08]
5 139.999985 -0.000060 0.000000 -2.629135 -0.742763 5.541801 139.999985
6 139.999985 -0.000060 0.000000 -1.800078 0.457195 5.041372 139.999985
[Rope3_Seg09]
5 90.185997 -0.000179 -0.000060 89.793228 -1.359877 -0.847183 90.185997
6 90.185997 -0.000179 -0.000060 89.793228 -1.359877 -0.847183 90.185997
[R_rear_hand01]
5 103.366196 -6.073594 -10.757982 -166.970291 21.129854 -46.704182 104.101845
6 103.366196 -6.073594 -10.757982 -166.970291 21.129850 -46.704182 104.101845
[R_rear_hand02]
5 100.509819 12.039542 -7.992327 -28.148870 27.804201 44.102722 101.543350
6 100.509819 12.039542 -7.992327 -28.148869 27.804199 44.102722 101.543350
[R_rear_hand03]
5 101.539970 5.215704 5.435467 81.628380 -47.127724 10.016966 101.819031
6 101.539970 5.215704 5.435467 81.628380 -47.127724 10.016966 101.819031
[Rope4_Seg01]
5 -0.000037 0.000000 -0.000024 -104.044868 9.628264 -142.631805 0.000044
6 -0.000036 0.000000 -0.000031 -105.584099 12.454845 -130.886017 0.000047
[Rope4_Seg02]
5 139.999985 0.000060 0.000119 38.431854 36.554939 5.568420 139.999985
6 139.999985 0.000060 0.000119 11.061613 35.837254 18.817011 139.999985
[Rope4_Seg03]
5 139.999924 0.000000 -0.000238 75.653740 22.847622 -16.158646 139.999924
6 139.999924 0.000000 -0.000238 156.512939 28.151138 9.947685 139.999924
[Rope4_Seg04]
5 139.999985 0.000000 0.000119 14.588154 -3.578128 -11.868884 139.999985
6 139.999985 0.000000 0.000119 11.002594 -8.919834 -9.388831 139.999985
[Rope4_Seg05]
5 139.999802 -0.000060 -0.000119 9.877283 -1.568876 -9.532450 139.999802
6 139.999802 -0.000060 -0.000119 4.621877 -7.769886 -6.879490 139.999802
[Rope4_Seg06]
5 139.999924 0.000000 0.000060 7.576066 -1.783731 -9.063200 139.999924
6 139.999924 0.000000 0.000060 2.576704 -7.042945 -5.640678 139.999924
[Rope4_Seg07]
5 139.999802 0.000000 0.000000 3.213136 -2.551644 -5.208554 139.999802
6 139.999802 0.000000 0.000000 0.969453 -4.682875 -3.201428 139.999802
[Rope4_Seg08]
5 139.999924 0.000000 0.000119 0.106287 -1.816187 -3.166065 139.999924
6 139.999924 0.000000 0.000119 -1.050330 -2.984749 -1.974841 139.999924
[Rope4_Seg09]
5 90.185791 0.000060 0.000060 -135.617828 2.228885 0.850567 90.185791
6 90.185791 0.000060 0.000060 -135.617828 2.228885 0.850567 90.185791
[L_rear_hand01]
5 101.696655 -8.392275 -7.654577 -27.705481 -28.251705 134.947800 102.329041
6 101.696655 -8.392275 -7.654577 -27.705481 -28.251705 134.947800 102.329041
[L_rear_hand02]
5 102.726799 -1.568258 5.773216 81.477219 48.065086 169.775513 102.900848
6 102.726799 -1.568258 5.773216 81.477219 48.065086 169.775513 102.900848
[L_rear_hand03]
5 104.552910 9.721220 -10.420293 -167.330078 -21.338425 -132.303940 105.519653
6 104.552910 9.721220 -10.420293 -167.330078 -21.338425 -132.303940 105.519653
